<svg xmlns="http://www.w3.org/2000/svg" xmlns:xlink="http://www.w3.org/1999/xlink" version="1.1" x="0px" y="0px" viewBox="0 0 32 40" enable-background="new 0 0 32 32" xml:space="preserve"><g><path d="M29,25.5h-3.5V11.31l2.28,1.14c0.15,0.07,0.34,0.07,0.48-0.02c0.15-0.1,0.24-0.26,0.24-0.43v-2c0-0.19-0.11-0.36-0.28-0.45   l-12-6c-0.14-0.07-0.3-0.07-0.44,0l-12,6C3.61,9.64,3.5,9.81,3.5,10v2c0,0.17,0.09,0.33,0.24,0.43c0.14,0.09,0.33,0.09,0.48,0.02   l2.28-1.14V25.5H3c-0.28,0-0.5,0.22-0.5,0.5v2c0,0.28,0.22,0.5,0.5,0.5h26c0.28,0,0.5-0.22,0.5-0.5v-2   C29.5,25.72,29.28,25.5,29,25.5z M14.57,7.93c0-0.79,0.64-1.43,1.43-1.43s1.43,0.64,1.43,1.43S16.79,9.36,16,9.36   S14.57,8.72,14.57,7.93z M22,15H10v-3h12V15z M13.5,20h5v5.5h-5V20z"/></g><text x="0" y="47" fill="#000000" font-size="5px" font-weight="bold" font-family="'Helvetica Neue', Helvetica, Arial-Unicode, Arial, Sans-serif">Created by Firza Alamsyah</text><text x="0" y="52" fill="#000000" font-size="5px" font-weight="bold" font-family="'Helvetica Neue', Helvetica, Arial-Unicode, Arial, Sans-serif">from the Noun Project</text></svg>